<?xml version="1.0" encoding="UTF-8"?>
<svg xmlns="http://www.w3.org/2000/svg" viewBox="0 0 1120 740" width="1120" height="740">
<defs>
  <style>text { font-family: Georgia, "Times New Roman", serif; }</style>
  <marker id="fw" markerWidth="7" markerHeight="5.5" refX="7" refY="2.75" orient="auto"><polygon points="0 0,7 2.75,0 5.5" fill="#1c1c1e"/></marker>
  <marker id="fb" markerWidth="7" markerHeight="5.5" refX="7" refY="2.75" orient="auto"><polygon points="0 0,7 2.75,0 5.5" fill="#b22020"/></marker>
  <marker id="op" markerWidth="7" markerHeight="5.5" refX="7" refY="2.75" orient="auto"><polygon points="0 0,7 2.75,0 5.5" fill="#777"/></marker>
  <marker id="gr" markerWidth="7" markerHeight="5.5" refX="7" refY="2.75" orient="auto"><polygon points="0 0,7 2.75,0 5.5" fill="#bbb"/></marker>
  <filter id="sh" x="-5%" y="-5%" width="110%" height="110%"><feDropShadow dx="0" dy="1" stdDeviation="2" flood-color="#00000018"/></filter>
</defs>
<rect width="1120" height="740" fill="#fafaf8"/>
<line x1="0" y1="70" x2="1120" y2="70" stroke="#eaeae4" stroke-width="0.6"/>
<line x1="0" y1="240" x2="1120" y2="240" stroke="#eaeae4" stroke-width="0.6"/>
<line x1="0" y1="410" x2="1120" y2="410" stroke="#eaeae4" stroke-width="0.6"/>
<line x1="0" y1="560" x2="1120" y2="560" stroke="#eaeae4" stroke-width="0.6"/>
<rect x="0" y="0" width="1120" height="52" fill="#1c1c1e"/>
<text x="560" y="22" text-anchor="middle" font-size="14" font-weight="bold" fill="white" letter-spacing="1.2">CASCADED PID CONTROL SYSTEM &#x2014; KRISHI BALANCER (KB#2155)</text>
<text x="560" y="40" text-anchor="middle" font-size="9.5" fill="#aabbcc" letter-spacing="0.5">e-Yantra Robotics Competition 2025-26 &#xB7; IIT Bombay</text>
<rect x="0" y="52" width="13" height="188" fill="#a83200" opacity="0.88"/>
<text x="6.5" y="146" text-anchor="middle" font-size="7.5" font-weight="bold" fill="white" transform="rotate(-90 6.5 146)" letter-spacing="0.7">OUTER LOOP  20 Hz  VELOCITY PI</text>
<rect x="0" y="240" width="13" height="170" fill="#155e42" opacity="0.88"/>
<text x="6.5" y="325" text-anchor="middle" font-size="7.5" font-weight="bold" fill="white" transform="rotate(-90 6.5 325)" letter-spacing="0.7">INNER LOOP  100 Hz  ANGLE PID</text>
<rect x="0" y="410" width="13" height="150" fill="#1a3f78" opacity="0.88"/>
<text x="6.5" y="485" text-anchor="middle" font-size="7.5" font-weight="bold" fill="white" transform="rotate(-90 6.5 485)" letter-spacing="0.7">YAW LOOP  20 Hz  PI</text>
<rect x="20" y="130" width="92" height="50" fill="white" stroke="#555" stroke-width="1.5" rx="3" filter="url(#sh)"/>
<text x="66" y="147" text-anchor="middle" font-size="8.5" fill="#777">Reference</text>
<text x="66" y="163" text-anchor="middle" font-size="11" font-style="italic" font-weight="bold" fill="#1c1c1e">v_ref = 0</text>
<text x="66" y="176" text-anchor="middle" font-size="7.5" fill="#aaa">ticks / 50 ms</text>
<path d="M112,155 L149,155" fill="none" stroke="#1c1c1e" stroke-width="1.65" marker-end="url(#fw)"/>
<circle cx="162" cy="155" r="13" fill="white" stroke="#1c1c1e" stroke-width="1.8" filter="url(#sh)"/>
<text x="162" y="154" text-anchor="middle" font-size="14" fill="#1c1c1e">+</text>
<text x="162" y="166" text-anchor="middle" font-size="12" fill="#b22020">&#x2212;</text>
<text x="162" y="128" text-anchor="middle" font-size="9" font-style="italic" fill="#555">e_v</text>
<path d="M175,155 L204,155" fill="none" stroke="#1c1c1e" stroke-width="1.65" marker-end="url(#fw)"/>
<rect x="204" y="122" width="148" height="66" fill="white" stroke="#a83200" stroke-width="2.1" rx="3" filter="url(#sh)"/>
<text x="278" y="140" text-anchor="middle" font-size="8.5" fill="#888">Velocity Controller  C&#x2081;</text>
<line x1="212" y1="147" x2="344" y2="147" stroke="#eee" stroke-width="0.8"/>
<text x="278" y="163" text-anchor="middle" font-size="13" font-style="italic" fill="#1c1c1e">Kp&#xB7;e + Ki&#xB7;&#x222B;e dt</text>
<text x="278" y="180" text-anchor="middle" font-size="8.5" fill="#aaa">Kp = 0.025    Ki = 0.01</text>
<path d="M352,155 L384,155" fill="none" stroke="#1c1c1e" stroke-width="1.65" marker-end="url(#fw)"/>
<rect x="384" y="128" width="62" height="54" fill="white" stroke="#b06a00" stroke-width="1.8" rx="3" filter="url(#sh)"/>
<text x="415" y="144" text-anchor="middle" font-size="8" fill="#888">Limit</text>
<text x="415" y="162" text-anchor="middle" font-size="12" font-weight="bold" fill="#1c1c1e">&#xB1;3&#xB0;</text>
<text x="415" y="177" text-anchor="middle" font-size="7" fill="#aaa">anti-windup</text>
<path d="M415,182 L415,309 L175,309 L175,312" fill="none" stroke="#555" stroke-width="1.65" stroke-dasharray="5,3.5" marker-end="url(#fw)"/>
<text x="424" y="250" text-anchor="start" font-size="8.5" font-style="italic" fill="#555">&#x394;&#x3B8;_ref</text>
<rect x="204" y="201" width="148" height="48" fill="#fffaf4" stroke="#b06a00" stroke-width="1.5" rx="3" filter="url(#sh)"/>
<text x="278" y="220" text-anchor="middle" font-size="8.5" fill="#888">Left Encoder  (INT0 / INT1)</text>
<text x="278" y="236" text-anchor="middle" font-size="10.5" font-weight="bold" fill="#1c1c1e">&#x394;ticks / 50 ms</text>
<text x="278" y="259" text-anchor="middle" font-size="7.5" fill="#b22020">&#x26A0; Right encoder PCINT unreliable at speed</text>
<path d="M204,224 L162,224 L162,168" fill="none" stroke="#b22020" stroke-width="1.65" marker-end="url(#fb)"/>
<text x="170" y="210" text-anchor="start" font-size="8.5" font-style="italic" fill="#b22020">v_meas</text>
<rect x="20" y="300" width="100" height="50" fill="white" stroke="#555" stroke-width="1.5" rx="3" filter="url(#sh)"/>
<text x="70" y="317" text-anchor="middle" font-size="8.5" fill="#777">Base Setpoint</text>
<text x="70" y="334" text-anchor="middle" font-size="10.5" font-style="italic" font-weight="bold" fill="#1c1c1e">&#x3B8;_base = &#x2212;1.1&#xB0;</text>
<text x="70" y="346" text-anchor="middle" font-size="7.5" fill="#aaa">CoG offset trim</text>
<path d="M120,325 L149,325" fill="none" stroke="#1c1c1e" stroke-width="1.65" marker-end="url(#fw)"/>
<circle cx="162" cy="325" r="13" fill="white" stroke="#1c1c1e" stroke-width="1.8" filter="url(#sh)"/>
<text x="162" y="324" text-anchor="middle" font-size="14" fill="#1c1c1e">+</text>
<text x="162" y="336" text-anchor="middle" font-size="14" fill="#1c1c1e">+</text>
<path d="M175,325 L215,325" fill="none" stroke="#1c1c1e" stroke-width="1.65" marker-end="url(#fw)"/>
<text x="193" y="316" text-anchor="middle" font-size="8.5" font-style="italic" fill="#666">&#x3B8;_ref</text>
<circle cx="228" cy="325" r="13" fill="white" stroke="#1c1c1e" stroke-width="1.8" filter="url(#sh)"/>
<text x="228" y="324" text-anchor="middle" font-size="14" fill="#1c1c1e">+</text>
<text x="228" y="336" text-anchor="middle" font-size="12" fill="#b22020">&#x2212;</text>
<text x="228" y="298" text-anchor="middle" font-size="9" font-style="italic" fill="#555">e_&#x3B8;</text>
<path d="M241,325 L270,325" fill="none" stroke="#1c1c1e" stroke-width="1.65" marker-end="url(#fw)"/>
<rect x="270" y="292" width="162" height="66" fill="white" stroke="#155e42" stroke-width="2.1" rx="3" filter="url(#sh)"/>
<text x="351" y="310" text-anchor="middle" font-size="8.5" fill="#888">Angle Controller  C&#x2082;</text>
<line x1="278" y1="317" x2="424" y2="317" stroke="#eee" stroke-width="0.8"/>
<text x="351" y="333" text-anchor="middle" font-size="13" font-style="italic" fill="#1c1c1e">Kp&#xB7;e &#x2212; Kd&#xB7;&#x3C9;</text>
<text x="351" y="350" text-anchor="middle" font-size="7.5" fill="#aaa">Kp=45  Kd=0.8  D=&#x2212;&#x3C9;  (gyro rate, not de/dt)</text>
<path d="M432,325 L470,325" fill="none" stroke="#1c1c1e" stroke-width="1.65" marker-end="url(#fw)"/>
<rect x="470" y="298" width="62" height="54" fill="white" stroke="#b06a00" stroke-width="1.8" rx="3" filter="url(#sh)"/>
<text x="501" y="314" text-anchor="middle" font-size="8" fill="#888">Limit</text>
<text x="501" y="332" text-anchor="middle" font-size="12" font-weight="bold" fill="#1c1c1e">&#xB1;80</text>
<text x="501" y="347" text-anchor="middle" font-size="7" fill="#aaa">PWM</text>
<path d="M532,325 L622,325" fill="none" stroke="#1c1c1e" stroke-width="1.65" marker-end="url(#fw)"/>
<text x="572" y="316" text-anchor="middle" font-size="8.5" font-style="italic" fill="#666">u_&#x3B8;</text>
<rect x="270" y="372" width="162" height="56" fill="#f2f9f6" stroke="#155e42" stroke-width="1.6" rx="3" filter="url(#sh)"/>
<text x="351" y="392" text-anchor="middle" font-size="8.5" fill="#888">Complementary Filter  (Sensor)</text>
<text x="351" y="408" text-anchor="middle" font-size="10" font-style="italic" fill="#1c1c1e">&#x3B8; = &#x3B1;(&#x3B8;+&#x3C9;&#xB7;dt) + (1&#x2212;&#x3B1;)&#x3B8;_acc</text>
<text x="351" y="422" text-anchor="middle" font-size="8" fill="#888">&#x3B1; = 0.96   MPU6050   I2C 400 kHz</text>
<path d="M270,400 L228,400 L228,338" fill="none" stroke="#b22020" stroke-width="1.65" marker-end="url(#fb)"/>
<text x="235" y="396" text-anchor="start" font-size="8.5" font-style="italic" fill="#b22020">&#x3B8;_meas</text>
<path d="M351,372 L351,358" fill="none" stroke="#bbb" stroke-width="1.65" stroke-dasharray="5,3.5" marker-end="url(#gr)"/>
<text x="358" y="368" text-anchor="start" font-size="7.5" font-style="italic" fill="#bbb">&#x3C9; (D-term)</text>
<rect x="20" y="470" width="92" height="50" fill="white" stroke="#555" stroke-width="1.5" rx="3" filter="url(#sh)"/>
<text x="66" y="487" text-anchor="middle" font-size="8.5" fill="#777">Yaw Reference</text>
<text x="66" y="504" text-anchor="middle" font-size="11" font-style="italic" font-weight="bold" fill="#1c1c1e">&#x3C8;_ref = 0</text>
<text x="66" y="516" text-anchor="middle" font-size="7.5" fill="#aaa">deg / s</text>
<path d="M112,495 L149,495" fill="none" stroke="#1c1c1e" stroke-width="1.65" marker-end="url(#fw)"/>
<circle cx="162" cy="495" r="13" fill="white" stroke="#1c1c1e" stroke-width="1.8" filter="url(#sh)"/>
<text x="162" y="494" text-anchor="middle" font-size="14" fill="#1c1c1e">+</text>
<text x="162" y="506" text-anchor="middle" font-size="12" fill="#b22020">&#x2212;</text>
<text x="162" y="468" text-anchor="middle" font-size="9" font-style="italic" fill="#555">e_&#x3C8;</text>
<path d="M175,495 L204,495" fill="none" stroke="#1c1c1e" stroke-width="1.65" marker-end="url(#fw)"/>
<rect x="204" y="462" width="148" height="66" fill="white" stroke="#1a3f78" stroke-width="2.1" rx="3" filter="url(#sh)"/>
<text x="278" y="480" text-anchor="middle" font-size="8.5" fill="#888">Yaw Controller  C&#x2083;</text>
<line x1="212" y1="487" x2="344" y2="487" stroke="#eee" stroke-width="0.8"/>
<text x="278" y="503" text-anchor="middle" font-size="13" font-style="italic" fill="#1c1c1e">Kp&#xB7;e + Ki&#xB7;&#x222B;e dt</text>
<text x="278" y="520" text-anchor="middle" font-size="8.5" fill="#aaa">Kp = 1.5    Ki = 0.3</text>
<path d="M352,495 L384,495" fill="none" stroke="#1c1c1e" stroke-width="1.65" marker-end="url(#fw)"/>
<rect x="384" y="468" width="62" height="54" fill="white" stroke="#b06a00" stroke-width="1.8" rx="3" filter="url(#sh)"/>
<text x="415" y="484" text-anchor="middle" font-size="8" fill="#888">Limit</text>
<text x="415" y="502" text-anchor="middle" font-size="12" font-weight="bold" fill="#1c1c1e">&#xB1;30</text>
<text x="415" y="517" text-anchor="middle" font-size="7" fill="#aaa">PWM</text>
<path d="M446,495 L644,495 L644,383" fill="none" stroke="#1c1c1e" stroke-width="1.65" marker-end="url(#fw)"/>
<text x="450" y="486" text-anchor="start" font-size="8.5" font-style="italic" fill="#666">u_&#x3C8;</text>
<rect x="204" y="542" width="148" height="46" fill="#f2f6fb" stroke="#1a3f78" stroke-width="1.5" rx="3" filter="url(#sh)"/>
<text x="278" y="562" text-anchor="middle" font-size="8.5" fill="#888">Gyro gz  (MPU6050)</text>
<text x="278" y="578" text-anchor="middle" font-size="11" font-style="italic" font-weight="bold" fill="#1c1c1e">&#x3C8;&#x2D9;_meas  [deg/s]</text>
<path d="M204,565 L162,565 L162,508" fill="none" stroke="#b22020" stroke-width="1.65" marker-end="url(#fb)"/>
<text x="170" y="550" text-anchor="start" font-size="8.5" font-style="italic" fill="#b22020">&#x3C8;&#x2D9;_meas</text>
<rect x="622" y="269" width="152" height="114" fill="white" stroke="#4e2f82" stroke-width="2.1" rx="3" filter="url(#sh)"/>
<text x="698" y="289" text-anchor="middle" font-size="8.5" fill="#888">Motor Mixing</text>
<line x1="630" y1="296" x2="766" y2="296" stroke="#eee" stroke-width="0.8"/>
<text x="698" y="314" text-anchor="middle" font-size="12" font-style="italic" fill="#1c1c1e">L = &#x2212;(u_&#x3B8; + u_&#x3C8;)</text>
<text x="698" y="334" text-anchor="middle" font-size="12" font-style="italic" fill="#1c1c1e">R = &#x2212;(u_&#x3B8; &#x2212; u_&#x3C8;)</text>
<text x="698" y="353" text-anchor="middle" font-size="8" fill="#aaa">clamp(L, R,  &#x2212;80, +80)</text>
<text x="698" y="370" text-anchor="middle" font-size="8" fill="#aaa">RIGHT_INVERTED = true</text>
<path d="M774,325 L808,325" fill="none" stroke="#1c1c1e" stroke-width="1.65" marker-end="url(#fw)"/>
<rect x="808" y="273" width="136" height="104" fill="white" stroke="#555" stroke-width="1.8" rx="3" filter="url(#sh)"/>
<text x="876" y="293" text-anchor="middle" font-size="8.5" fill="#888">L298N Driver</text>
<text x="876" y="310" text-anchor="middle" font-size="9.5" font-weight="bold" fill="#1c1c1e">botController v1.1</text>
<line x1="816" y1="317" x2="936" y2="317" stroke="#eee" stroke-width="0.8"/>
<text x="876" y="333" text-anchor="middle" font-size="8.5" fill="#aaa">ENA(D6)   ENB(D5)</text>
<text x="876" y="349" text-anchor="middle" font-size="8.5" fill="#aaa">PWM 8-bit   0&#x2013;255</text>
<text x="876" y="365" text-anchor="middle" font-size="8" fill="#aaa">Deadband = 15</text>
<path d="M944,325 L980,325" fill="none" stroke="#1c1c1e" stroke-width="1.65" marker-end="url(#fw)"/>
<rect x="980" y="259" width="114" height="134" fill="white" stroke="#1c1c1e" stroke-width="2.4" rx="3" filter="url(#sh)"/>
<text x="1037" y="279" text-anchor="middle" font-size="8.5" fill="#888">Plant  P</text>
<line x1="988" y1="287" x2="1086" y2="287" stroke="#eee" stroke-width="0.8"/>
<text x="1037" y="305" text-anchor="middle" font-size="10.5" font-weight="bold" fill="#1c1c1e">2&#xD7; N20</text>
<text x="1037" y="321" text-anchor="middle" font-size="10.5" font-weight="bold" fill="#1c1c1e">300 RPM</text>
<text x="1037" y="338" text-anchor="middle" font-size="8.5" fill="#aaa">43 mm wheels</text>
<text x="1037" y="353" text-anchor="middle" font-size="8.5" fill="#aaa">7.4 V  2S LiPo</text>
<text x="1037" y="368" text-anchor="middle" font-size="8.5" fill="#aaa">Chassis + Arm</text>
<text x="1037" y="387" text-anchor="middle" font-size="14" font-style="italic" font-weight="bold" fill="#155e42">&#x3B8;(t)</text>
<text x="1037" y="405" text-anchor="middle" font-size="8" fill="#888">pitch &#xB7; yaw &#xB7; velocity</text>
<line x1="1037" y1="393" x2="1037" y2="646" stroke="#b22020" stroke-width="1.65" stroke-dasharray="5,3"/>
<line x1="162" y1="646" x2="1037" y2="646" stroke="#b22020" stroke-width="1.65" stroke-dasharray="5,3"/>
<line x1="278" y1="646" x2="278" y2="249" stroke="#b22020" stroke-width="1.65" stroke-dasharray="4,3" marker-end="url(#fb)"/>
<text x="283" y="640" text-anchor="start" font-size="9" font-style="italic" fill="#b22020">v</text>
<line x1="351" y1="646" x2="351" y2="428" stroke="#b22020" stroke-width="1.65" stroke-dasharray="4,3" marker-end="url(#fb)"/>
<text x="356" y="640" text-anchor="start" font-size="9" font-style="italic" fill="#b22020">&#x3B8;</text>
<line x1="450" y1="646" x2="450" y2="588" stroke="#b22020" stroke-width="1.65" stroke-dasharray="4,3" marker-end="url(#fb)"/>
<text x="455" y="640" text-anchor="start" font-size="9" font-style="italic" fill="#b22020">&#x3C8;&#x2D9;</text>
<text x="700" y="664" text-anchor="middle" font-size="8.5" font-style="italic" fill="#b22020">Physical feedback &#x2014; &#x3B8;(t), &#x3C8;&#x2D9;(t) and velocity sensed by MPU6050 and left encoder</text>
<rect x="796" y="122" width="170" height="60" fill="#fff4f2" stroke="#a83200" stroke-width="1.6" rx="3" filter="url(#sh)"/>
<text x="881" y="142" text-anchor="middle" font-size="8.5" fill="#999">Safety Monitor</text>
<text x="881" y="158" text-anchor="middle" font-size="9.5" font-weight="bold" fill="#a83200">|&#x3B8;| &gt; 45&#xB0; &#x2192; stopMotors()</text>
<text x="881" y="173" text-anchor="middle" font-size="8.5" fill="#aaa">|&#x3B8;| &lt; 5&#xB0; &#x2192; resume (1 s delay)</text>
<path d="M540,646 L540,152 L796,152" fill="none" stroke="#a83200" stroke-width="1.65" stroke-dasharray="5,3.5" marker-end="url(#op)"/>
<text x="544" y="390" text-anchor="start" font-size="7.5" font-style="italic" fill="#a83200">&#x3B8; monitor</text>
<rect x="628" y="62" width="152" height="58" fill="white" stroke="#777" stroke-width="1.5" rx="3" filter="url(#sh)"/>
<text x="704" y="82" text-anchor="middle" font-size="8.5" fill="#888">Operator Input</text>
<text x="704" y="98" text-anchor="middle" font-size="11" font-weight="bold" fill="#1c1c1e">Dabble App</text>
<text x="704" y="113" text-anchor="middle" font-size="8.5" fill="#aaa">HC-05  BT  9600 baud</text>
<path d="M628,88 L162,88 L162,142" fill="none" stroke="#777" stroke-width="1.65" stroke-dasharray="5,3.5" marker-end="url(#op)"/>
<text x="395" y="81" text-anchor="middle" font-size="8" font-style="italic" fill="#777">v_ref command</text>
<path d="M704,120 L704,449 L162,449 L162,482" fill="none" stroke="#777" stroke-width="1.65" stroke-dasharray="5,3.5" marker-end="url(#op)"/>
<text x="435" y="442" text-anchor="middle" font-size="8" font-style="italic" fill="#777">&#x3C8;_ref command</text>
<rect x="18" y="668" width="720" height="40" fill="white" stroke="#e0e0da" stroke-width="1" rx="2"/>
<line x1="30" y1="684" x2="60" y2="684" stroke="#1c1c1e" stroke-width="1.5" marker-end="url(#fw)"/>
<text x="65" y="688" text-anchor="start" font-size="8.5" fill="#333">Forward path</text>
<line x1="152" y1="684" x2="182" y2="684" stroke="#b22020" stroke-width="1.5" marker-end="url(#fb)"/>
<text x="187" y="688" text-anchor="start" font-size="8.5" fill="#333">Feedback path</text>
<line x1="278" y1="684" x2="308" y2="684" stroke="#777" stroke-width="1.2" stroke-dasharray="4,3" marker-end="url(#op)"/>
<text x="313" y="688" text-anchor="start" font-size="8.5" fill="#333">Operator command</text>
<circle cx="412" cy="684" r="7" fill="white" stroke="#1c1c1e" stroke-width="1.5"/>
<text x="412" y="688" text-anchor="middle" font-size="11" fill="#1c1c1e">+</text>
<text x="424" y="688" text-anchor="start" font-size="8.5" fill="#333">Summing junction</text>
<rect x="508" y="677" width="38" height="15" fill="white" stroke="#555" stroke-width="1"/>
<text x="527" y="688" text-anchor="middle" font-size="8" fill="#333">G(s)</text>
<text x="552" y="688" text-anchor="start" font-size="8.5" fill="#333">Controller / Plant</text>
<rect x="640" y="677" width="40" height="15" fill="white" stroke="#b06a00" stroke-width="1.5"/>
<text x="660" y="688" text-anchor="middle" font-size="8" fill="#b06a00">&#xB1;lim</text>
<text x="685" y="688" text-anchor="start" font-size="8.5" fill="#333">Saturation</text>
<text x="30" y="702" text-anchor="start" font-size="7.5" fill="#aaa">Loop rates:  Outer 20 Hz (50 ms) &#xB7; Inner 100 Hz (10 ms) &#xB7; Yaw 20 Hz (50 ms)   |   MPU6050 I2C 400 kHz   &#xB7;   Left encoder INT0/INT1 reliable   &#xB7;   Right encoder PCINT unreliable</text>
<rect x="750" y="668" width="352" height="40" fill="#1c1c1e" rx="2"/>
<text x="926" y="684" text-anchor="middle" font-size="9" fill="#aabbcc">Prathamesh Nerpagar (Lead) &#xB7; Adhi Shankar</text>
<text x="926" y="700" text-anchor="middle" font-size="9" fill="#aabbcc">Balamurali &#xB7; Sameer Chakravarti &#xB7; KB#2155</text>
</svg>